# xmcd
#
# Track frame offsets:
#	150
#	17063
#	35045
#	50050
#	66648
#	83978
#	99885
#	121193
#	137820
#	147948
#	164065
#	175780
#	195923
#	221060
#	237090
#	258135
#	281760
#	295425
#	321645
#	337208
#
# Disc length: 4660 seconds
#
# Revision: 1
# Processed by: cddbd v1.5.1PL0 Copyright (c) Steve Scherf et al.
# Submitted via: CDex 1.50Beta5
#
DISCID=41123214
DTITLE=Various Artist - Happy End Parade
DYEAR=2002
DGENRE=Pop
TTITLE0=小西康陽/はいからはくち
TTITLE1=曽我部恵一/空いろのくれよん
TTITLE2=スピッツ/12月の雨の日
TTITLE3=Jim O'rurke featuring オリジナル・ラブ/抱きしめたい
TTITLE4=くるり/あやか市の動物園
TTITLE5=デイジー/風来坊
TTITLE6=BLACK EYE'S RIVER(浜崎貴司＋高野寛＋TOKIE)/無風状態
TTITLE7=空気公団/いらいら
TTITLE8=つじあやの/暗闇坂むささび変化
TTITLE9=Hiroko&Mother Ship Jam/氷雨月のスケッチ
TTITLE10=永積タカシFrom Super Butter DOG/春らんまん
TTITLE11=My Little Lover/風をあつめて
TTITLE12=青山陽一＋鈴木茂/花いちもんめ
TTITLE13=山下久美子 and SOUL LOVER meets 佐藤博/相合傘
TTITLE14=Leyona/はいからはくち
TTITLE15=キリンジ/夏なんです
TTITLE16=Sons Of (片寄明人 from Great 3＋John McEntire from TORTOISE)/氷雨月のスケッチ
TTITLE17=キセルMeets細野晴臣/しんしんしん
TTITLE18=WORLD STANDARD (鈴木惣一朗) meets KAMA AINA (青柳拓次)/さよならアメリカ さよならニッポン
TTITLE19=航空電子/春よ来い
EXTD=
EXTT0=
EXTT1=
EXTT2=
EXTT3=
EXTT4=
EXTT5=
EXTT6=
EXTT7=
EXTT8=
EXTT9=
EXTT10=
EXTT11=
EXTT12=
EXTT13=
EXTT14=
EXTT15=
EXTT16=
EXTT17=
EXTT18=
EXTT19=
PLAYORDER=
